<svg xmlns="http://www.w3.org/2000/svg" viewBox="0 0 1236.44 181.77"><defs><style>.cls-1{fill:#e0693d;}.cls-2{fill:#343d46;}</style></defs><g id="Layer_2" data-name="Layer 2"><g id="Layer_1-2" data-name="Layer 1"><path class="cls-1" d="M93.86,2.56c2.77.77,5.51,1.65,8.32,2.28q16.65,3.69,33.33,7.23c1.44.31,3.11.59,2.69,2.4a4,4,0,0,1-2.61,2.32c-8.46,2-17,3.72-25.44,5.54-3.23.7-6.44,1.45-9.68,2.09-1.58.31-2.12,1.13-2.11,2.71,0,8.67.1,17.34,0,26,0,2,1.19,2.75,2.47,3.61C118.48,68.48,136,80.53,154,91.76c6.52,4.07,9.49,9.56,11.79,16.3,6.49,19,13.27,37.89,19.94,56.83.89,2.54,1.84,5.06,2.66,7.62,1.35,4.19-.08,7.5-3.68,8.79-3.38,1.21-7-.69-8.4-4.65-3.45-9.65-6.77-19.35-10.19-29q-7.23-20.4-14.55-40.76a5.09,5.09,0,0,0-1.91-2.28C131.89,92.75,114.12,81,96.44,69.1c-1.84-1.23-2.94-.6-4.37.35q-20.4,13.64-40.82,27.2c-2.39,1.58-4.73,3.28-7.26,4.62-4.58,2.4-7.09,6.13-8.73,11-5.2,15.4-10.74,30.68-16.14,46q-3.21,9.11-6.4,18.2c-1.41,4-5.06,6.14-8.53,4.89S-.9,176.59.53,172.54q9.06-25.69,18.2-51.36c2.47-7,4.78-14,7.42-20.88a10.2,10.2,0,0,1,3.5-4.58q29-19.56,58.16-38.83A5.08,5.08,0,0,0,90.44,52q-.16-22.33,0-44.66c0-1.61.84-3.21,1.29-4.82Z"/><path class="cls-2" d="M94.47,181.75c-2.89,0-5.77,0-8.66,0-2.69-.05-3.61-1.17-3-3.84,3-14,6-28,9.13-42a4.1,4.1,0,0,1,2.55-2.66c1.76-.32,2.35,1.31,2.69,2.89q4,18.69,8.11,37.37c.33,1.54.67,3.07,1,4.62.43,2.42-.37,3.51-2.81,3.58C100.42,181.81,97.45,181.74,94.47,181.75Z"/><path class="cls-2" d="M771.55,135.83V10.57a18.45,18.45,0,0,1,.15-3.33c.73-3.85,3.9-6.11,8.06-5.86a7.06,7.06,0,0,1,6.76,6.86c.05.78.05,1.57.05,2.35q0,79.23,0,158.45a24.26,24.26,0,0,1-.36,4.67,7.1,7.1,0,0,1-6.08,6.1c-3.53.64-6.57-.24-8.57-3.33a26.6,26.6,0,0,1-2.61-5.46q-22.47-63.14-44.87-126.31a6.56,6.56,0,0,0-1.27-2.37v127.8a24,24,0,0,1-.12,2.94,7.12,7.12,0,0,1-7.6,6.63c-4-.05-6.81-2.59-7.32-6.72a21.66,21.66,0,0,1-.1-2.55q0-78.93,0-157.86a28.29,28.29,0,0,1,.18-3.32c.49-4.16,2.58-6.69,6.25-7.63a8.68,8.68,0,0,1,9.68,3.47,26.76,26.76,0,0,1,2.93,6q21.88,61.38,43.69,122.78c.26.72.54,1.42.81,2.13Z"/><path class="cls-2" d="M894.34,135.9v-2.05q0-61.65,0-123.3a17.48,17.48,0,0,1,.16-3.32c.73-3.85,3.9-6.11,8.06-5.85a7.07,7.07,0,0,1,6.75,6.87c0,.79,0,1.57,0,2.36q0,79.22,0,158.44a24.42,24.42,0,0,1-.36,4.68,7.09,7.09,0,0,1-6.09,6.08c-3.52.64-6.56-.25-8.56-3.34a26.29,26.29,0,0,1-2.6-5.46q-22.47-63.15-44.88-126.32a6.61,6.61,0,0,0-1.26-2.35V170.15a24.05,24.05,0,0,1-.07,2.55c-.45,4.36-3.27,7-7.47,7s-7.06-2.6-7.53-6.93a20.51,20.51,0,0,1-.08-2.35q0-78.93,0-157.86a28.46,28.46,0,0,1,.18-3.33c.49-4.14,2.59-6.68,6.26-7.62a8.69,8.69,0,0,1,9.68,3.5,27,27,0,0,1,2.92,6q21.88,61.37,43.69,122.78c.26.71.54,1.41.81,2.11Z"/><path class="cls-2" d="M660.76,90.55q0,24.53,0,49.07c0,8.95-1.82,17.46-7,24.93-7.91,11.51-19.23,16.5-32.94,16.38-11.27-.1-21-4-28.48-12.61-6-6.94-8.6-15.28-9.21-24.31-.09-1.37-.09-2.75-.09-4.12q0-49.27,0-98.54A45,45,0,0,1,588,19.8,35.33,35.33,0,0,1,609.31,2.1a41.06,41.06,0,0,1,29,1.13c11.83,5,18.65,14.22,21.28,26.57a58.56,58.56,0,0,1,1.15,11.68C660.83,57.83,660.76,74.19,660.76,90.55Zm-60.79,0h0c0,16.17-.1,32.33.07,48.49a42.11,42.11,0,0,0,1.58,11.57c2.47,8.22,8.08,13.36,16.75,14.51,9.12,1.21,16.71-1.51,21.74-9.63,3.1-5,3.83-10.63,3.84-16.39q0-48.59,0-97.17a46.25,46.25,0,0,0-.78-8.38C640,17,620.71,9.79,608,20.42c-5.71,4.78-7.91,11.35-8,18.51C599.85,56.14,600,73.35,600,90.55Z"/><path class="cls-1" d="M288.58,103.1c-5,0-9.83,0-14.66,0-4.37,0-7-2.46-7.07-6.63a6.61,6.61,0,0,1,6.77-7.09c7.92-.12,15.84-.11,23.76,0a7.59,7.59,0,0,1,7.44,6.56,18.08,18.08,0,0,1,.23,2.93q0,20.41,0,40.84c0,8.95-1.84,17.46-7,24.92-7.94,11.49-19.27,16.46-33,16.32-11.2-.12-20.88-4-28.33-12.53-6.07-7-8.68-15.38-9.28-24.49-.08-1.3-.09-2.61-.09-3.92q0-49.38,0-98.76c0-8.2,1.62-16,5.88-23.07C239.35,8,248.46,2.37,260,.61c9-1.36,17.63-.26,25.69,4.1,10.09,5.46,15.82,14.18,18.2,25.22a40.87,40.87,0,0,1,1,7.38c.14,5.49.29,11,0,16.47-.27,4.8-3.8,7.49-8.71,7.3a7.81,7.81,0,0,1-7.91-8c-.15-5.62,0-11.26-.42-16.86C287,25.57,279.9,17.54,270.33,16c-13.27-2.16-23.82,5.69-25.64,19.14a50.47,50.47,0,0,0-.44,6.84q0,48.69,0,97.38c0,5.71.69,11.26,3.68,16.24,4.89,8.13,12.45,10.88,21.47,9.87s14.85-6.12,17.64-14.6a30,30,0,0,0,1.56-8.84c.18-12.62.09-25.26.1-37.89C288.67,103.87,288.62,103.62,288.58,103.1Z"/><path class="cls-1" d="M348,90.73q0-25.33,0-50.66c0-9.33,2.1-18,7.8-25.6A35.05,35.05,0,0,1,379.49.6c8.56-1.27,16.85-.33,24.57,3.79,9.43,5,14.92,13.11,17.24,23.37a53.25,53.25,0,0,1,1.2,9.91c.18,6.08.13,12.17,0,18.26a7.53,7.53,0,0,1-6.64,7.55c-4.38.58-8.07-1.46-9.18-5.25a15.37,15.37,0,0,1-.47-4.07c-.08-5.69.08-11.39-.17-17.08-.29-6.54-2.31-12.52-7.51-16.88-11.81-9.89-29.44-3.66-32.86,11.62a39.6,39.6,0,0,0-.86,8.56q-.09,50.16,0,100.33c0,6.14.94,12,4.74,17.07,5.08,6.73,12.13,8.63,20.09,7.23s13.05-6.44,15.19-14.13a46.7,46.7,0,0,0,1.35-10.64c.21-5.62,0-11.26.08-16.88s4.07-9.27,9.51-8.55c3.64.49,6.71,3.35,6.7,7.09,0,9.34.4,18.78-.76,28-2.35,18.79-18.3,31.59-37.32,31.05-10.85-.31-20.21-3.91-27.41-12.25-6-7-8.5-15.33-9-24.38,0-.59,0-1.18,0-1.77V90.73Z"/><path class="cls-2" d="M465.51,90.84q0-25.32,0-50.65c0-8.77,1.75-17.07,6.82-24.35C480,4.8,490.94,0,504.17.14,515,.26,524.39,4,531.51,12.44c5.6,6.67,8.09,14.6,8.47,23.15.3,6.73.2,13.48.11,20.22a7.59,7.59,0,0,1-7.7,7.77c-4.63.18-8.17-2.61-8.43-7.15-.29-5.22-.17-10.47-.17-15.7a32.59,32.59,0,0,0-2.31-13.24A19.46,19.46,0,0,0,502,15.65c-9.19.57-15.88,5.73-18.28,14.55a38.65,38.65,0,0,0-1.3,9.87c-.1,33.64-.06,67.28-.06,100.92,0,6.08,1,11.9,4.78,16.85,5.11,6.72,12.17,8.57,20.12,7.16s12.93-6.42,15.08-14a45.57,45.57,0,0,0,1.38-10.64c.22-5.62,0-11.25.07-16.88.07-5.79,4-9.34,9.41-8.67,3.67.45,6.79,3.25,6.8,7,0,9.35.43,18.79-.73,28-2.38,18.83-18,31.56-37,31.18-11-.22-20.5-3.84-27.78-12.32-6-6.94-8.43-15.22-8.9-24.21,0-.65-.05-1.31-.05-2V90.84Z"/><path class="cls-2" d="M1052,90.83q0-25.32,0-50.65c0-8.77,1.75-17.07,6.82-24.35,7.7-11,18.62-15.84,31.85-15.69,10.86.12,20.22,3.83,27.34,12.3,5.6,6.68,8.09,14.61,8.47,23.16.3,6.73.19,13.48.11,20.22a7.59,7.59,0,0,1-7.71,7.76c-4.63.18-8.17-2.61-8.43-7.16-.29-5.22-.17-10.47-.17-15.7A32.51,32.51,0,0,0,1108,27.49a19.42,19.42,0,0,0-19.48-11.83c-9.19.56-15.88,5.73-18.28,14.55a38.65,38.65,0,0,0-1.3,9.87c-.09,33.63-.05,67.27-.06,100.91,0,6.08,1,11.91,4.79,16.86,5.11,6.71,12.17,8.57,20.12,7.15s12.93-6.43,15.08-14a45.71,45.71,0,0,0,1.38-10.64c.21-5.62,0-11.26.07-16.89s4-9.33,9.41-8.66c3.67.46,6.79,3.25,6.79,7,0,9.35.44,18.79-.73,28-2.4,19-18.32,31.74-37.42,31.16-10.86-.33-20.21-4-27.38-12.32a36.89,36.89,0,0,1-8.84-24.21c-.21-17.86-.06-35.73-.06-53.6Z"/><path class="cls-2" d="M968.24,79.19h2.25c9.35,0,18.71,0,28.07,0,5.92,0,9.16,4.71,7.31,10.36a6.26,6.26,0,0,1-5.36,4.55,23.28,23.28,0,0,1-3.13.2q-13.35,0-26.7,0h-2.45V162.7h2.23c12.17,0,24.35,0,36.52,0,5.88,0,9.27,4.57,7.79,10.18a7.33,7.33,0,0,1-7.4,5.57c-5.23.07-10.47,0-15.7,0q-15.72,0-31.42,0c-5.6,0-8.62-2.88-9-8.44,0-.59,0-1.18,0-1.77V12.58a22.87,22.87,0,0,1,.08-2.35c.52-4.81,3.48-7.52,8.32-7.66H960q22.77,0,45.55,0c5.75,0,9.13,4.15,8,9.7a7.21,7.21,0,0,1-6.79,6c-2,.11-3.93.07-5.89.07q-15.23,0-30.44,0h-2.27Z"/><path class="cls-2" d="M1187.51,18.36h-13.25c-3.54,0-7.07.06-10.6,0-5-.11-8.09-3.23-8.1-7.94s3.25-7.78,8.24-7.82c7.26-.05,14.53,0,21.79,0q21.3,0,42.61,0c5.62,0,8.88,3.8,8.14,9.3a7.25,7.25,0,0,1-7.45,6.44c-7.39.09-14.79,0-22.18,0h-2.4v2.87q0,74,0,148a18.72,18.72,0,0,1-.48,4.85c-1,3.88-4.36,5.89-8.77,5.55a7.92,7.92,0,0,1-7.39-6.92,30.93,30.93,0,0,1-.14-3.73q0-73.92,0-147.83Z"/></g></g></svg>